<?xml version="1.0" encoding="utf-8"?>
<svg xmlns="http://www.w3.org/2000/svg" version="1.1" width="1004" height="1004">
<circle cx="640" cy="264" fill="red" stroke="black" stroke-width="1" r="3"/>
<circle cx="762" cy="370" fill="darkblue" stroke="black" stroke-width="1" r="3"/>
<circle cx="817" cy="710" fill="red" stroke="black" stroke-width="1" r="3"/>
<circle cx="968" cy="864" fill="darkblue" stroke="black" stroke-width="1" r="3"/>
<circle cx="760" cy="670" fill="red" stroke="black" stroke-width="1" r="3"/>
<circle cx="947" cy="545" fill="darkblue" stroke="black" stroke-width="1" r="3"/>
<circle cx="32" cy="863" fill="red" stroke="black" stroke-width="1" r="3"/>
<circle cx="479" cy="797" fill="darkblue" stroke="black" stroke-width="1" r="3"/>
<circle cx="968" cy="258" fill="red" stroke="black" stroke-width="1" r="3"/>
<circle cx="667" cy="56" fill="darkblue" stroke="black" stroke-width="1" r="3"/>
<circle cx="925" cy="163" fill="red" stroke="black" stroke-width="1" r="3"/>
<circle cx="118" cy="383" fill="darkblue" stroke="black" stroke-width="1" r="3"/>
<circle cx="483" cy="892" fill="red" stroke="black" stroke-width="1" r="3"/>
<circle cx="255" cy="392" fill="darkblue" stroke="black" stroke-width="1" r="3"/>
<circle cx="559" cy="107" fill="red" stroke="black" stroke-width="1" r="3"/>
<circle cx="590" cy="258" fill="darkblue" stroke="black" stroke-width="1" r="3"/>
<circle cx="16" cy="751" fill="red" stroke="black" stroke-width="1" r="3"/>
<circle cx="224" cy="420" fill="darkblue" stroke="black" stroke-width="1" r="3"/>
<circle cx="289" cy="189" fill="red" stroke="black" stroke-width="1" r="3"/>
<circle cx="941" cy="891" fill="darkblue" stroke="black" stroke-width="1" r="3"/>
<circle cx="787" cy="401" fill="red" stroke="black" stroke-width="1" r="3"/>
<circle cx="166" cy="783" fill="darkblue" stroke="black" stroke-width="1" r="3"/>
<circle cx="819" cy="76" fill="red" stroke="black" stroke-width="1" r="3"/>
<circle cx="145" cy="635" fill="darkblue" stroke="black" stroke-width="1" r="3"/>
<circle cx="635" cy="458" fill="red" stroke="black" stroke-width="1" r="3"/>
<circle cx="132" cy="138" fill="darkblue" stroke="black" stroke-width="1" r="3"/>
<circle cx="4" cy="998" fill="red" stroke="black" stroke-width="1" r="3"/>
<circle cx="895" cy="8" fill="darkblue" stroke="black" stroke-width="1" r="3"/>
<circle cx="217" cy="795" fill="red" stroke="black" stroke-width="1" r="3"/>
<circle cx="223" cy="986" fill="darkblue" stroke="black" stroke-width="1" r="3"/>
<circle cx="172" cy="896" fill="red" stroke="black" stroke-width="1" r="3"/>
<circle cx="173" cy="299" fill="darkblue" stroke="black" stroke-width="1" r="3"/>
<circle cx="324" cy="987" fill="red" stroke="black" stroke-width="1" r="3"/>
<circle cx="206" cy="555" fill="darkblue" stroke="black" stroke-width="1" r="3"/>
<circle cx="900" cy="697" fill="red" stroke="black" stroke-width="1" r="3"/>
<circle cx="643" cy="212" fill="darkblue" stroke="black" stroke-width="1" r="3"/>
<circle cx="189" cy="966" fill="red" stroke="black" stroke-width="1" r="3"/>
<circle cx="994" cy="710" fill="darkblue" stroke="black" stroke-width="1" r="3"/>
<circle cx="204" cy="992" fill="red" stroke="black" stroke-width="1" r="3"/>
<circle cx="991" cy="918" fill="darkblue" stroke="black" stroke-width="1" r="3"/>
<circle cx="395" cy="308" fill="red" stroke="black" stroke-width="1" r="3"/>
<circle cx="25" cy="372" fill="darkblue" stroke="black" stroke-width="1" r="3"/>
<circle cx="427" cy="172" fill="red" stroke="black" stroke-width="1" r="3"/>
<circle cx="961" cy="152" fill="darkblue" stroke="black" stroke-width="1" r="3"/>
<circle cx="273" cy="69" fill="red" stroke="black" stroke-width="1" r="3"/>
<circle cx="342" cy="311" fill="darkblue" stroke="black" stroke-width="1" r="3"/>
<circle cx="840" cy="620" fill="red" stroke="black" stroke-width="1" r="3"/>
<circle cx="603" cy="6" fill="darkblue" stroke="black" stroke-width="1" r="3"/>
<circle cx="613" cy="697" fill="red" stroke="black" stroke-width="1" r="3"/>
<circle cx="727" cy="349" fill="darkblue" stroke="black" stroke-width="1" r="3"/>
<circle cx="70" cy="320" fill="red" stroke="black" stroke-width="1" r="3"/>
<circle cx="366" cy="841" fill="darkblue" stroke="black" stroke-width="1" r="3"/>
<circle cx="316" cy="495" fill="red" stroke="black" stroke-width="1" r="3"/>
<circle cx="716" cy="326" fill="darkblue" stroke="black" stroke-width="1" r="3"/>
<circle cx="192" cy="495" fill="red" stroke="black" stroke-width="1" r="3"/>
<circle cx="486" cy="724" fill="darkblue" stroke="black" stroke-width="1" r="3"/>
<circle cx="183" cy="61" fill="red" stroke="black" stroke-width="1" r="3"/>
<circle cx="265" cy="1001" fill="darkblue" stroke="black" stroke-width="1" r="3"/>
<circle cx="964" cy="26" fill="red" stroke="black" stroke-width="1" r="3"/>
<circle cx="975" cy="770" fill="darkblue" stroke="black" stroke-width="1" r="3"/>
<circle cx="369" cy="868" fill="red" stroke="black" stroke-width="1" r="3"/>
<circle cx="416" cy="21" fill="darkblue" stroke="black" stroke-width="1" r="3"/>
<circle cx="565" cy="809" fill="red" stroke="black" stroke-width="1" r="3"/>
<circle cx="431" cy="377" fill="darkblue" stroke="black" stroke-width="1" r="3"/>
<circle cx="388" cy="595" fill="red" stroke="black" stroke-width="1" r="3"/>
<circle cx="864" cy="12" fill="darkblue" stroke="black" stroke-width="1" r="3"/>
<circle cx="466" cy="50" fill="red" stroke="black" stroke-width="1" r="3"/>
<circle cx="727" cy="188" fill="darkblue" stroke="black" stroke-width="1" r="3"/>
<circle cx="641" cy="981" fill="red" stroke="black" stroke-width="1" r="3"/>
<circle cx="980" cy="204" fill="darkblue" stroke="black" stroke-width="1" r="3"/>
<circle cx="124" cy="776" fill="red" stroke="black" stroke-width="1" r="3"/>
<circle cx="254" cy="954" fill="darkblue" stroke="black" stroke-width="1" r="3"/>
<circle cx="842" cy="967" fill="red" stroke="black" stroke-width="1" r="3"/>
<circle cx="476" cy="355" fill="darkblue" stroke="black" stroke-width="1" r="3"/>
<circle cx="527" cy="366" fill="red" stroke="black" stroke-width="1" r="3"/>
<circle cx="917" cy="540" fill="darkblue" stroke="black" stroke-width="1" r="3"/>
<circle cx="259" cy="797" fill="red" stroke="black" stroke-width="1" r="3"/>
<circle cx="476" cy="113" fill="darkblue" stroke="black" stroke-width="1" r="3"/>
<circle cx="606" cy="769" fill="red" stroke="black" stroke-width="1" r="3"/>
<circle cx="802" cy="819" fill="darkblue" stroke="black" stroke-width="1" r="3"/>
<circle cx="379" cy="883" fill="red" stroke="black" stroke-width="1" r="3"/>
<circle cx="305" cy="40" fill="darkblue" stroke="black" stroke-width="1" r="3"/>
<circle cx="446" cy="971" fill="red" stroke="black" stroke-width="1" r="3"/>
<circle cx="96" cy="216" fill="darkblue" stroke="black" stroke-width="1" r="3"/>
<circle cx="351" cy="528" fill="red" stroke="black" stroke-width="1" r="3"/>
<circle cx="628" cy="374" fill="darkblue" stroke="black" stroke-width="1" r="3"/>
<circle cx="943" cy="154" fill="red" stroke="black" stroke-width="1" r="3"/>
<circle cx="351" cy="285" fill="darkblue" stroke="black" stroke-width="1" r="3"/>
<circle cx="949" cy="722" fill="red" stroke="black" stroke-width="1" r="3"/>
<circle cx="561" cy="97" fill="darkblue" stroke="black" stroke-width="1" r="3"/>
<circle cx="322" cy="705" fill="red" stroke="black" stroke-width="1" r="3"/>
<circle cx="327" cy="316" fill="darkblue" stroke="black" stroke-width="1" r="3"/>
<circle cx="184" cy="820" fill="red" stroke="black" stroke-width="1" r="3"/>
<circle cx="83" cy="644" fill="darkblue" stroke="black" stroke-width="1" r="3"/>
<circle cx="155" cy="741" fill="red" stroke="black" stroke-width="1" r="3"/>
<circle cx="708" cy="319" fill="darkblue" stroke="black" stroke-width="1" r="3"/>
<circle cx="498" cy="168" fill="red" stroke="black" stroke-width="1" r="3"/>
<circle cx="740" cy="52" fill="darkblue" stroke="black" stroke-width="1" r="3"/>
<circle cx="85" cy="618" fill="red" stroke="black" stroke-width="1" r="3"/>
<circle cx="549" cy="948" fill="darkblue" stroke="black" stroke-width="1" r="3"/>
</svg>
